<svg version="1.0" xmlns="http://www.w3.org/2000/svg"
 width="300.000000pt" height="300.000000pt" viewBox="0 0 300.000000 300.000000"
 preserveAspectRatio="xMidYMid meet">
<metadata>
Created by potrace 1.10, written by Peter Selinger 2001-2011
</metadata>
<g transform="translate(0.000000,300.000000) scale(0.100000,-0.100000)"
fill="#FFFFFF" stroke="none">
<path d="M828 2531 c-29 -24 -43 -29 -114 -34 -113 -7 -156 -32 -189 -110 -12
-30 -16 -109 -21 -439 -3 -222 -9 -404 -14 -406 -19 -7 -120 -150 -136 -192
-22 -62 -22 -145 1 -170 25 -27 71 -26 89 2 18 29 30 108 16 108 -5 0 -10 5
-10 11 0 17 41 71 49 64 3 -4 6 -109 6 -233 0 -249 2 -257 65 -317 l31 -30
203 -3 204 -3 7 -82 c15 -175 36 -221 102 -215 53 4 71 36 89 153 9 55 18 110
20 123 4 21 9 22 83 22 l78 0 6 -98 c10 -152 32 -202 88 -202 72 0 87 32 124
262 l6 38 117 1 c132 0 176 11 206 52 20 27 21 42 24 340 2 172 5 313 7 315 1
1 31 7 66 13 35 6 83 21 106 35 41 23 98 86 122 132 7 13 21 22 35 22 103 0
201 99 213 214 5 47 2 64 -21 110 -116 237 -466 168 -466 -91 0 -56 19 -101
65 -151 25 -28 35 -47 31 -60 -11 -32 -61 -73 -110 -87 l-46 -14 0 312 c0 403
-11 467 -89 542 -28 26 -40 30 -104 33 -57 4 -78 10 -104 29 -50 38 -104 41
-153 9 l-41 -27 -25 20 c-30 24 -83 36 -117 27 -13 -3 -36 -17 -51 -31 l-28
-26 -25 25 c-26 27 -95 43 -132 31 -12 -3 -34 -17 -50 -31 -25 -20 -31 -22
-38 -10 -13 23 -65 46 -105 46 -27 0 -47 -8 -70 -29z m98 -16 c19 -14 19 -14
-2 -15 -12 0 -36 -3 -53 -6 -37 -8 -43 12 -8 26 31 13 41 12 63 -5z m267 -4
c42 -16 70 -96 51 -145 -11 -30 -23 -16 -17 19 4 24 0 49 -12 76 l-18 39 -69
-3 c-68 -4 -87 6 -45 23 25 11 68 7 110 -9z m185 13 c44 -12 24 -31 -33 -31
-59 0 -69 7 -32 25 26 13 35 14 65 6z m240 -9 c12 -12 -14 -23 -43 -18 -21 3
-41 1 -50 -7 -12 -10 -15 -10 -15 3 0 27 86 44 108 22z m-150 -97 c3 -38 0
-57 -9 -65 -12 -9 -14 0 -14 52 0 46 -5 68 -17 82 -28 31 -21 40 9 11 20 -20
27 -39 31 -80z m-468 57 c15 -24 20 -47 18 -76 -5 -63 -23 -59 -23 5 0 37 -5
60 -17 73 -20 22 -23 33 -9 33 5 0 19 -16 31 -35z m690 -36 c11 -38 5 -89 -10
-89 -5 0 -6 18 -3 40 4 29 0 48 -16 75 -26 45 -27 53 -1 30 11 -10 25 -35 30
-56z m-723 0 c7 -13 13 -32 13 -43 0 -15 -3 -16 -15 -6 -22 18 -32 -16 -14
-49 18 -33 59 -39 82 -13 18 19 26 99 13 120 -4 7 20 12 65 14 62 3 73 0 85
-17 19 -27 18 -56 -1 -49 -20 8 -30 -22 -17 -51 15 -34 57 -43 84 -19 18 17
20 27 15 82 l-5 63 42 -6 c22 -4 50 -15 61 -24 17 -14 18 -14 7 0 -14 18 -7
29 19 29 12 0 21 -10 25 -27 3 -16 8 -36 11 -45 5 -21 -7 -24 -25 -6 -17 17
-28 -17 -16 -51 11 -31 63 -42 83 -17 19 23 30 84 21 116 l-8 28 76 -2 c81 -2
90 -8 91 -65 1 -20 -1 -21 -14 -11 -22 18 -32 -16 -14 -49 32 -57 94 -23 93
52 0 23 -2 49 -4 57 -4 12 4 15 45 12 59 -3 91 -23 122 -78 43 -75 46 -137 41
-841 -2 -364 -7 -665 -9 -668 -3 -2 -230 -5 -505 -6 -532 -1 -544 0 -586 47
-49 56 -49 51 -48 747 2 576 0 657 -14 697 -20 54 -39 76 -74 85 -56 14 5 24
133 21 126 -3 130 -4 142 -27z m-361 -43 l-26 -57 0 -695 0 -696 22 -40 c35
-62 60 -70 237 -74 90 -3 160 -9 166 -15 7 -7 -51 -9 -191 -7 -225 3 -227 4
-262 78 -15 32 -17 103 -17 745 0 669 1 712 18 745 18 33 67 83 75 75 2 -1 -8
-28 -22 -59z m64 20 c0 -2 -7 -17 -15 -32 -13 -25 -15 -127 -15 -724 0 -674 1
-697 20 -735 11 -21 18 -41 16 -43 -10 -9 -29 13 -47 52 -18 39 -19 78 -19
721 0 650 1 682 20 723 10 23 24 42 30 42 5 0 10 -2 10 -4z m34 -38 c-10 -26
-18 -1366 -9 -1416 3 -18 20 -48 37 -67 32 -37 27 -46 -11 -19 -53 37 -52 31
-52 785 0 483 3 705 11 719 15 28 35 26 24 -2z m42 -708 c1 -479 5 -678 14
-704 6 -19 27 -49 45 -65 19 -17 31 -32 26 -35 -16 -10 -76 32 -94 67 -18 35
-19 69 -18 709 0 812 -2 725 14 709 9 -9 12 -161 13 -681z m1641 415 c73 -43
105 -130 79 -217 -42 -146 -206 -190 -312 -84 -125 124 -42 324 135 326 41 0
65 -6 98 -25z m-289 -54 c-26 -34 -40 -40 -31 -13 10 27 24 42 40 42 11 0 8
-8 -9 -29z m99 -333 c15 -7 30 -13 32 -14 7 -5 -63 -94 -85 -109 -27 -17 -126
-45 -162 -45 -20 0 -23 4 -20 28 3 23 8 28 44 32 48 7 92 36 125 84 27 40 28
41 66 24z m-1716 -329 c-33 -32 -38 -45 -49 -124 -6 -45 -10 -50 -32 -50 -23
0 -25 4 -28 54 -4 63 25 130 91 214 l42 52 3 -58 c3 -53 0 -60 -27 -88z m899
-546 c0 -9 -22 -13 -75 -13 -66 0 -86 6 -71 21 3 2 36 4 75 4 50 0 71 -4 71
-12z m502 5 c-16 -16 -272 -25 -272 -11 0 20 18 23 149 23 108 0 133 -3 123
-12z m-687 -35 c-29 -218 -38 -259 -65 -273 -27 -14 -48 -3 -59 33 -8 24 -30
219 -31 270 0 4 36 7 80 7 l80 0 -5 -37z m385 34 c0 -21 -32 -220 -39 -246
-12 -38 -38 -71 -57 -71 -28 0 -43 46 -53 165 -6 66 -11 128 -11 138 0 15 10
17 80 17 44 0 80 -1 80 -3z"/>
<path d="M849 2204 c-5 -6 -7 -13 -4 -15 2 -3 235 -4 517 -3 429 1 513 4 513
15 0 12 -83 14 -508 14 -359 0 -511 -3 -518 -11z"/>
<path d="M845 2119 c-4 -6 -4 -13 -1 -16 4 -5 509 -6 994 -3 30 0 42 4 42 15
0 13 -64 15 -514 15 -354 0 -517 -3 -521 -11z"/>
<path d="M1145 1965 c-50 -49 -17 -145 50 -145 32 0 85 50 85 80 0 77 -84 117
-135 65z m87 -41 c11 -23 10 -29 -11 -45 -28 -23 -61 -10 -61 24 0 49 53 64
72 21z"/>
<path d="M1648 1960 c-25 -26 -29 -36 -24 -63 7 -38 48 -77 81 -77 33 0 74 38
81 76 4 24 0 37 -21 62 -36 43 -76 43 -117 2z m86 -25 c12 -13 13 -21 4 -40
-14 -31 -54 -34 -63 -5 -15 49 24 79 59 45z"/>
<path d="M1362 1893 c4 -38 50 -68 100 -67 34 1 48 8 71 34 31 35 31 53 -1 58
-16 3 -22 -2 -22 -16 0 -40 -81 -45 -106 -7 -22 34 -46 33 -42 -2z"/>
<path d="M1430 1643 c-82 -23 -108 -101 -58 -172 13 -18 13 -33 2 -103 -7 -46
-17 -114 -22 -153 l-10 -70 47 -62 c25 -34 54 -63 63 -63 10 0 36 27 61 63
l45 62 -19 145 c-10 80 -21 151 -24 158 -2 7 4 27 15 45 26 42 25 80 -2 112
-24 26 -72 45 -98 38z m55 -45 c19 -8 25 -19 25 -42 0 -47 -25 -76 -65 -76
-28 0 -37 6 -50 30 -21 40 -19 65 8 83 27 19 48 21 82 5z m20 -316 l16 -132
-31 -45 c-17 -25 -34 -45 -38 -44 -4 0 -21 20 -39 44 l-31 43 16 146 16 145
31 3 c19 2 32 -2 37 -12 4 -8 14 -75 23 -148z"/>
<path d="M1749 1280 c-68 -49 -127 -98 -131 -109 -10 -28 -8 -240 3 -247 9 -5
14 84 11 182 -2 48 1 53 41 90 45 42 181 142 203 151 16 6 19 23 5 23 -5 0
-65 -40 -132 -90z"/>
<path d="M2214 2066 c-48 -21 -77 -70 -82 -138 -4 -50 -1 -64 22 -98 61 -92
177 -101 251 -19 47 53 56 112 24 176 -31 62 -77 93 -138 93 -25 -1 -60 -7
-77 -14z m127 -27 c50 -25 84 -92 75 -145 -9 -47 -48 -88 -95 -103 -36 -10
-47 -9 -85 8 -28 12 -50 31 -60 50 -35 66 -8 159 55 192 44 24 61 23 110 -2z"/>
<path d="M2249 2012 c-37 -38 -41 -49 -29 -72 10 -19 44 -39 78 -46 20 -4 25
-11 19 -29 -7 -17 -52 -21 -62 -5 -11 18 -35 11 -35 -10 0 -13 9 -22 25 -26
14 -3 25 -10 25 -15 0 -5 7 -9 15 -9 8 0 15 5 15 10 0 6 7 10 15 10 8 0 22 11
30 24 24 37 6 71 -47 87 -47 15 -62 43 -29 54 11 3 30 1 42 -5 31 -17 52 6 24
25 -11 8 -25 19 -32 25 -17 15 -25 12 -54 -18z"/>
<path d="M1120 720 c-15 -15 -20 -32 -19 -72 l1 -53 8 53 c4 29 16 62 26 73
23 25 10 25 -16 -1z"/>
<path d="M1496 718 c-9 -12 -15 -41 -15 -63 1 -40 1 -40 11 13 6 33 15 52 23
52 8 0 17 5 20 10 13 21 -25 9 -39 -12z"/>
</g>
</svg>
